<mxfile host="app.diagrams.net" modified="2022-04-02T09:28:47.584Z" agent="5.0 (Windows NT 10.0; Win64; x64) AppleWebKit/537.36 (KHTML, like Gecko) Chrome/99.0.4844.84 Safari/537.36" etag="iPLJfuTaA8bAN3ByzQrI" version="16.0.0" type="github">
  <diagram id="C5RBs43oDa-KdzZeNtuy" name="Page-1">
    <mxGraphModel dx="1422" dy="794" grid="1" gridSize="10" guides="1" tooltips="1" connect="1" arrows="1" fold="1" page="1" pageScale="1" pageWidth="827" pageHeight="1169" math="0" shadow="0">
      <root>
        <mxCell id="WIyWlLk6GJQsqaUBKTNV-0" />
        <mxCell id="WIyWlLk6GJQsqaUBKTNV-1" parent="WIyWlLk6GJQsqaUBKTNV-0" />
        <mxCell id="hx5Sh7kraGvc3iBP8_gI-9" value="&lt;p style=&quot;margin: 0px ; margin-top: 4px ; text-align: center&quot;&gt;&lt;i&gt;ICommission&lt;/i&gt;&lt;br&gt;&lt;b&gt;佣金计算接口&lt;/b&gt;&lt;/p&gt;&lt;hr size=&quot;1&quot;&gt;&lt;p style=&quot;margin: 0px ; margin-left: 4px&quot;&gt;&lt;br&gt;&lt;/p&gt;&lt;hr size=&quot;1&quot;&gt;&lt;p style=&quot;margin: 0px ; margin-left: 4px&quot;&gt;+ FyCommissionLog calc(Order,Rule)&lt;/p&gt;" style="verticalAlign=top;align=left;overflow=fill;fontSize=12;fontFamily=Helvetica;html=1;" vertex="1" parent="WIyWlLk6GJQsqaUBKTNV-1">
          <mxGeometry x="300" y="350" width="260" height="100" as="geometry" />
        </mxCell>
        <mxCell id="hx5Sh7kraGvc3iBP8_gI-10" value="OrderCommissionCalcService" style="swimlane;fontStyle=1;align=center;verticalAlign=top;childLayout=stackLayout;horizontal=1;startSize=26;horizontalStack=0;resizeParent=1;resizeParentMax=0;resizeLast=0;collapsible=1;marginBottom=0;" vertex="1" parent="WIyWlLk6GJQsqaUBKTNV-1">
          <mxGeometry x="600" y="520" width="220" height="60" as="geometry" />
        </mxCell>
        <mxCell id="hx5Sh7kraGvc3iBP8_gI-12" value="" style="line;strokeWidth=1;fillColor=none;align=left;verticalAlign=middle;spacingTop=-1;spacingLeft=3;spacingRight=3;rotatable=0;labelPosition=right;points=[];portConstraint=eastwest;" vertex="1" parent="hx5Sh7kraGvc3iBP8_gI-10">
          <mxGeometry y="26" width="220" height="8" as="geometry" />
        </mxCell>
        <mxCell id="hx5Sh7kraGvc3iBP8_gI-13" value="+ FyCommissionLog calc(Order,Rule)" style="text;strokeColor=none;fillColor=none;align=left;verticalAlign=top;spacingLeft=4;spacingRight=4;overflow=hidden;rotatable=0;points=[[0,0.5],[1,0.5]];portConstraint=eastwest;" vertex="1" parent="hx5Sh7kraGvc3iBP8_gI-10">
          <mxGeometry y="34" width="220" height="26" as="geometry" />
        </mxCell>
        <mxCell id="hx5Sh7kraGvc3iBP8_gI-14" value="CategoryCommissionCalcService" style="swimlane;fontStyle=1;align=center;verticalAlign=top;childLayout=stackLayout;horizontal=1;startSize=26;horizontalStack=0;resizeParent=1;resizeParentMax=0;resizeLast=0;collapsible=1;marginBottom=0;" vertex="1" parent="WIyWlLk6GJQsqaUBKTNV-1">
          <mxGeometry x="600" y="610" width="220" height="60" as="geometry" />
        </mxCell>
        <mxCell id="hx5Sh7kraGvc3iBP8_gI-15" value="" style="line;strokeWidth=1;fillColor=none;align=left;verticalAlign=middle;spacingTop=-1;spacingLeft=3;spacingRight=3;rotatable=0;labelPosition=right;points=[];portConstraint=eastwest;" vertex="1" parent="hx5Sh7kraGvc3iBP8_gI-14">
          <mxGeometry y="26" width="220" height="8" as="geometry" />
        </mxCell>
        <mxCell id="hx5Sh7kraGvc3iBP8_gI-16" value="+ FyCommissionLog calc(Order,Rule)" style="text;strokeColor=none;fillColor=none;align=left;verticalAlign=top;spacingLeft=4;spacingRight=4;overflow=hidden;rotatable=0;points=[[0,0.5],[1,0.5]];portConstraint=eastwest;" vertex="1" parent="hx5Sh7kraGvc3iBP8_gI-14">
          <mxGeometry y="34" width="220" height="26" as="geometry" />
        </mxCell>
        <mxCell id="hx5Sh7kraGvc3iBP8_gI-17" value="SalesCommissionCalcService" style="swimlane;fontStyle=1;align=center;verticalAlign=top;childLayout=stackLayout;horizontal=1;startSize=26;horizontalStack=0;resizeParent=1;resizeParentMax=0;resizeLast=0;collapsible=1;marginBottom=0;" vertex="1" parent="WIyWlLk6GJQsqaUBKTNV-1">
          <mxGeometry x="600" y="810" width="220" height="60" as="geometry" />
        </mxCell>
        <mxCell id="hx5Sh7kraGvc3iBP8_gI-18" value="" style="line;strokeWidth=1;fillColor=none;align=left;verticalAlign=middle;spacingTop=-1;spacingLeft=3;spacingRight=3;rotatable=0;labelPosition=right;points=[];portConstraint=eastwest;" vertex="1" parent="hx5Sh7kraGvc3iBP8_gI-17">
          <mxGeometry y="26" width="220" height="8" as="geometry" />
        </mxCell>
        <mxCell id="hx5Sh7kraGvc3iBP8_gI-19" value="+ FyCommissionLog calc(Order,Rule)" style="text;strokeColor=none;fillColor=none;align=left;verticalAlign=top;spacingLeft=4;spacingRight=4;overflow=hidden;rotatable=0;points=[[0,0.5],[1,0.5]];portConstraint=eastwest;" vertex="1" parent="hx5Sh7kraGvc3iBP8_gI-17">
          <mxGeometry y="34" width="220" height="26" as="geometry" />
        </mxCell>
        <mxCell id="hx5Sh7kraGvc3iBP8_gI-20" value="TagCommissionCalcService" style="swimlane;fontStyle=1;align=center;verticalAlign=top;childLayout=stackLayout;horizontal=1;startSize=26;horizontalStack=0;resizeParent=1;resizeParentMax=0;resizeLast=0;collapsible=1;marginBottom=0;" vertex="1" parent="WIyWlLk6GJQsqaUBKTNV-1">
          <mxGeometry x="600" y="700" width="220" height="60" as="geometry" />
        </mxCell>
        <mxCell id="hx5Sh7kraGvc3iBP8_gI-21" value="" style="line;strokeWidth=1;fillColor=none;align=left;verticalAlign=middle;spacingTop=-1;spacingLeft=3;spacingRight=3;rotatable=0;labelPosition=right;points=[];portConstraint=eastwest;" vertex="1" parent="hx5Sh7kraGvc3iBP8_gI-20">
          <mxGeometry y="26" width="220" height="8" as="geometry" />
        </mxCell>
        <mxCell id="hx5Sh7kraGvc3iBP8_gI-22" value="+ FyCommissionLog calc(Order,Rule)" style="text;strokeColor=none;fillColor=none;align=left;verticalAlign=top;spacingLeft=4;spacingRight=4;overflow=hidden;rotatable=0;points=[[0,0.5],[1,0.5]];portConstraint=eastwest;" vertex="1" parent="hx5Sh7kraGvc3iBP8_gI-20">
          <mxGeometry y="34" width="220" height="26" as="geometry" />
        </mxCell>
        <mxCell id="hx5Sh7kraGvc3iBP8_gI-23" value="ProductCommissionCalcService" style="swimlane;fontStyle=1;align=center;verticalAlign=top;childLayout=stackLayout;horizontal=1;startSize=26;horizontalStack=0;resizeParent=1;resizeParentMax=0;resizeLast=0;collapsible=1;marginBottom=0;" vertex="1" parent="WIyWlLk6GJQsqaUBKTNV-1">
          <mxGeometry x="600" y="895" width="220" height="60" as="geometry" />
        </mxCell>
        <mxCell id="hx5Sh7kraGvc3iBP8_gI-24" value="" style="line;strokeWidth=1;fillColor=none;align=left;verticalAlign=middle;spacingTop=-1;spacingLeft=3;spacingRight=3;rotatable=0;labelPosition=right;points=[];portConstraint=eastwest;" vertex="1" parent="hx5Sh7kraGvc3iBP8_gI-23">
          <mxGeometry y="26" width="220" height="8" as="geometry" />
        </mxCell>
        <mxCell id="hx5Sh7kraGvc3iBP8_gI-25" value="+ FyCommissionLog calc(Order,Rule)" style="text;strokeColor=none;fillColor=none;align=left;verticalAlign=top;spacingLeft=4;spacingRight=4;overflow=hidden;rotatable=0;points=[[0,0.5],[1,0.5]];portConstraint=eastwest;" vertex="1" parent="hx5Sh7kraGvc3iBP8_gI-23">
          <mxGeometry y="34" width="220" height="26" as="geometry" />
        </mxCell>
        <mxCell id="hx5Sh7kraGvc3iBP8_gI-26" value="" style="endArrow=block;dashed=1;endFill=0;endSize=12;html=1;rounded=0;" edge="1" parent="WIyWlLk6GJQsqaUBKTNV-1">
          <mxGeometry width="160" relative="1" as="geometry">
            <mxPoint x="620" y="720" as="sourcePoint" />
            <mxPoint x="780" y="720" as="targetPoint" />
          </mxGeometry>
        </mxCell>
        <mxCell id="hx5Sh7kraGvc3iBP8_gI-27" value="" style="endArrow=block;dashed=1;endFill=0;endSize=12;html=1;rounded=0;exitX=-0.014;exitY=-0.038;exitDx=0;exitDy=0;exitPerimeter=0;entryX=0.469;entryY=1.01;entryDx=0;entryDy=0;entryPerimeter=0;" edge="1" parent="WIyWlLk6GJQsqaUBKTNV-1" source="hx5Sh7kraGvc3iBP8_gI-13" target="hx5Sh7kraGvc3iBP8_gI-9">
          <mxGeometry width="160" relative="1" as="geometry">
            <mxPoint x="370" y="700" as="sourcePoint" />
            <mxPoint x="530" y="700" as="targetPoint" />
            <Array as="points">
              <mxPoint x="422" y="553" />
            </Array>
          </mxGeometry>
        </mxCell>
        <mxCell id="hx5Sh7kraGvc3iBP8_gI-29" value="" style="endArrow=block;dashed=1;endFill=0;endSize=12;html=1;rounded=0;exitX=0;exitY=0.5;exitDx=0;exitDy=0;entryX=0.469;entryY=1.01;entryDx=0;entryDy=0;entryPerimeter=0;" edge="1" parent="WIyWlLk6GJQsqaUBKTNV-1" source="hx5Sh7kraGvc3iBP8_gI-14" target="hx5Sh7kraGvc3iBP8_gI-9">
          <mxGeometry width="160" relative="1" as="geometry">
            <mxPoint x="596.9200000000001" y="553.012" as="sourcePoint" />
            <mxPoint x="421.94000000000005" y="451" as="targetPoint" />
            <Array as="points">
              <mxPoint x="422" y="640" />
            </Array>
          </mxGeometry>
        </mxCell>
        <mxCell id="hx5Sh7kraGvc3iBP8_gI-30" value="" style="endArrow=block;dashed=1;endFill=0;endSize=12;html=1;rounded=0;exitX=0;exitY=0.5;exitDx=0;exitDy=0;entryX=0.469;entryY=1.01;entryDx=0;entryDy=0;entryPerimeter=0;" edge="1" parent="WIyWlLk6GJQsqaUBKTNV-1" source="hx5Sh7kraGvc3iBP8_gI-22" target="hx5Sh7kraGvc3iBP8_gI-9">
          <mxGeometry width="160" relative="1" as="geometry">
            <mxPoint x="600" y="640" as="sourcePoint" />
            <mxPoint x="421.94000000000005" y="451" as="targetPoint" />
            <Array as="points">
              <mxPoint x="422" y="750" />
              <mxPoint x="422" y="640" />
            </Array>
          </mxGeometry>
        </mxCell>
        <mxCell id="hx5Sh7kraGvc3iBP8_gI-31" value="" style="endArrow=block;dashed=1;endFill=0;endSize=12;html=1;rounded=0;exitX=0;exitY=0.5;exitDx=0;exitDy=0;entryX=0.469;entryY=1.01;entryDx=0;entryDy=0;entryPerimeter=0;exitPerimeter=0;" edge="1" parent="WIyWlLk6GJQsqaUBKTNV-1" source="hx5Sh7kraGvc3iBP8_gI-18" target="hx5Sh7kraGvc3iBP8_gI-9">
          <mxGeometry width="160" relative="1" as="geometry">
            <mxPoint x="600" y="747" as="sourcePoint" />
            <mxPoint x="421.94000000000005" y="451" as="targetPoint" />
            <Array as="points">
              <mxPoint x="422" y="840" />
              <mxPoint x="422" y="750" />
              <mxPoint x="422" y="640" />
            </Array>
          </mxGeometry>
        </mxCell>
        <mxCell id="hx5Sh7kraGvc3iBP8_gI-32" value="" style="endArrow=block;dashed=1;endFill=0;endSize=12;html=1;rounded=0;exitX=-0.018;exitY=0.367;exitDx=0;exitDy=0;entryX=0.469;entryY=1.01;entryDx=0;entryDy=0;entryPerimeter=0;exitPerimeter=0;" edge="1" parent="WIyWlLk6GJQsqaUBKTNV-1" source="hx5Sh7kraGvc3iBP8_gI-23" target="hx5Sh7kraGvc3iBP8_gI-9">
          <mxGeometry width="160" relative="1" as="geometry">
            <mxPoint x="600" y="840" as="sourcePoint" />
            <mxPoint x="421.94000000000005" y="451" as="targetPoint" />
            <Array as="points">
              <mxPoint x="422" y="920" />
              <mxPoint x="422" y="840" />
              <mxPoint x="422" y="750" />
              <mxPoint x="422" y="640" />
            </Array>
          </mxGeometry>
        </mxCell>
        <mxCell id="hx5Sh7kraGvc3iBP8_gI-33" value="Context" style="swimlane;fontStyle=1;align=center;verticalAlign=top;childLayout=stackLayout;horizontal=1;startSize=26;horizontalStack=0;resizeParent=1;resizeParentMax=0;resizeLast=0;collapsible=1;marginBottom=0;" vertex="1" parent="WIyWlLk6GJQsqaUBKTNV-1">
          <mxGeometry x="20" y="220" width="220" height="86" as="geometry" />
        </mxCell>
        <mxCell id="hx5Sh7kraGvc3iBP8_gI-34" value="+ calcService: Map" style="text;strokeColor=none;fillColor=none;align=left;verticalAlign=top;spacingLeft=4;spacingRight=4;overflow=hidden;rotatable=0;points=[[0,0.5],[1,0.5]];portConstraint=eastwest;" vertex="1" parent="hx5Sh7kraGvc3iBP8_gI-33">
          <mxGeometry y="26" width="220" height="26" as="geometry" />
        </mxCell>
        <mxCell id="hx5Sh7kraGvc3iBP8_gI-35" value="" style="line;strokeWidth=1;fillColor=none;align=left;verticalAlign=middle;spacingTop=-1;spacingLeft=3;spacingRight=3;rotatable=0;labelPosition=right;points=[];portConstraint=eastwest;" vertex="1" parent="hx5Sh7kraGvc3iBP8_gI-33">
          <mxGeometry y="52" width="220" height="8" as="geometry" />
        </mxCell>
        <mxCell id="hx5Sh7kraGvc3iBP8_gI-36" value="+ calc(Order,Rule): FyCommissionLog" style="text;strokeColor=none;fillColor=none;align=left;verticalAlign=top;spacingLeft=4;spacingRight=4;overflow=hidden;rotatable=0;points=[[0,0.5],[1,0.5]];portConstraint=eastwest;" vertex="1" parent="hx5Sh7kraGvc3iBP8_gI-33">
          <mxGeometry y="60" width="220" height="26" as="geometry" />
        </mxCell>
        <mxCell id="hx5Sh7kraGvc3iBP8_gI-41" value="1" style="endArrow=open;html=1;endSize=12;startArrow=diamondThin;startSize=14;startFill=0;edgeStyle=orthogonalEdgeStyle;align=left;verticalAlign=bottom;rounded=0;entryX=-0.004;entryY=0.62;entryDx=0;entryDy=0;entryPerimeter=0;" edge="1" parent="WIyWlLk6GJQsqaUBKTNV-1" target="hx5Sh7kraGvc3iBP8_gI-9">
          <mxGeometry x="-1" y="3" relative="1" as="geometry">
            <mxPoint x="120" y="310" as="sourcePoint" />
            <mxPoint x="200" y="640" as="targetPoint" />
            <Array as="points">
              <mxPoint x="120" y="412" />
            </Array>
          </mxGeometry>
        </mxCell>
      </root>
    </mxGraphModel>
  </diagram>
</mxfile>
